<svg width="32" height="32" viewBox="0 0 32 32" fill="none" xmlns="http://www.w3.org/2000/svg">
  <style>
    .car-body {
      fill: #3b82f6;
    }
    
    .car-window {
      fill: #1e40af;
    }
    
    .car-wheel {
      fill: #111827;
    }
    
    @media (prefers-color-scheme: dark) {
      .car-body {
        fill: #60a5fa;
      }
      
      .car-window {
        fill: #3b82f6;
      }
      
      .car-wheel {
        fill: #f3f4f6;
      }
    }
  </style>
  <!-- Car body -->
  <path class="car-body" d="M6 20C6 18.8954 6.89543 18 8 18H24C25.1046 18 26 18.8954 26 20V24C26 25.1046 25.1046 26 24 26H8C6.89543 26 6 25.1046 6 24V20Z" />
  <!-- Car roof/windshield -->
  <path class="car-window" d="M10 12C10 11.4477 10.4477 11 11 11H13C13.5523 11 14 11.4477 14 12V18H10V12Z" />
  <path class="car-window" d="M18 12C18 11.4477 18.4477 11 19 11H21C21.5523 11 22 11.4477 22 12V18H18V12Z" />
  <!-- Front wheel -->
  <circle class="car-wheel" cx="10" cy="24" r="2.5" />
  <!-- Back wheel -->
  <circle class="car-wheel" cx="22" cy="24" r="2.5" />
  <!-- Car front -->
  <path class="car-body" d="M8 18L6 16V14C6 13.4477 6.44772 13 7 13H9C9.55228 13 10 13.4477 10 14V18H8Z" />
  <!-- Car back -->
  <path class="car-body" d="M24 18L26 16V14C26 13.4477 25.5523 13 25 13H23C22.4477 13 22 13.4477 22 14V18H24Z" />
</svg>
